<?xml version="1.0" encoding="utf-8" standalone="no"?>
<!DOCTYPE svg PUBLIC "-//W3C//DTD SVG 1.1//EN"
  "http://www.w3.org/Graphics/SVG/1.1/DTD/svg11.dtd">
<svg height="345.6pt" version="1.1" viewBox="0 0 460.8 345.6" width="460.8pt" xmlns="http://www.w3.org/2000/svg" xmlns:xlink="http://www.w3.org/1999/xlink">
 <metadata>
  <rdf:RDF xmlns:cc="http://creativecommons.org/ns#" xmlns:dc="http://purl.org/dc/elements/1.1/" xmlns:rdf="http://www.w3.org/1999/02/22-rdf-syntax-ns#">
   <cc:Work>
    <dc:type rdf:resource="http://purl.org/dc/dcmitype/StillImage"/>
    <dc:date>2022-02-02T23:05:41.394122</dc:date>
    <dc:format>image/svg+xml</dc:format>
    <dc:creator>
     <cc:Agent>
      <dc:title>Matplotlib v3.4.3, https://matplotlib.org/</dc:title>
     </cc:Agent>
    </dc:creator>
   </cc:Work>
  </rdf:RDF>
 </metadata>
 <defs>
  <style type="text/css">*{stroke-linecap:butt;stroke-linejoin:round;}</style>
 </defs>
 <g id="figure_1">
  <g id="patch_1">
   <path d="M 0 345.6 
L 460.8 345.6 
L 460.8 0 
L 0 0 
z
" style="fill:#ffffff;"/>
  </g>
  <g id="axes_1">
   <g id="patch_2">
    <path clip-path="url(#p6d198e8174)" d="M 254.811952 45.798773 
Q 254.811952 53.792061 254.811952 60.667314 
" style="fill:none;stroke:#000000;stroke-linecap:round;"/>
    <path clip-path="url(#p6d198e8174)" d="M 256.811952 56.667314 
L 254.811952 60.667314 
L 252.811952 56.667314 
L 256.811952 56.667314 
z
" style="stroke:#000000;stroke-linecap:round;"/>
   </g>
   <g id="patch_3">
    <path clip-path="url(#p6d198e8174)" d="M 240.161205 83.545254 
Q 196.221001 101.395962 153.316618 118.825868 
" style="fill:none;stroke:#000000;stroke-linecap:round;"/>
    <path clip-path="url(#p6d198e8174)" d="M 157.775238 119.173293 
L 153.316618 118.825868 
L 156.26973 115.467426 
L 157.775238 119.173293 
z
" style="stroke:#000000;stroke-linecap:round;"/>
   </g>
   <g id="patch_4">
    <path clip-path="url(#p6d198e8174)" d="M 254.811952 93.402079 
Q 254.811952 101.395366 254.811952 108.27062 
" style="fill:none;stroke:#000000;stroke-linecap:round;"/>
    <path clip-path="url(#p6d198e8174)" d="M 256.811952 104.27062 
L 254.811952 108.27062 
L 252.811952 104.27062 
L 256.811952 104.27062 
z
" style="stroke:#000000;stroke-linecap:round;"/>
   </g>
   <g id="patch_5">
    <path clip-path="url(#p6d198e8174)" d="M 266.132875 88.631289 
Q 279.224812 101.395927 291.516236 113.380066 
" style="fill:none;stroke:#000000;stroke-linecap:round;"/>
    <path clip-path="url(#p6d198e8174)" d="M 290.048436 109.155665 
L 291.516236 113.380066 
L 287.256036 112.019666 
L 290.048436 109.155665 
z
" style="stroke:#000000;stroke-linecap:round;"/>
   </g>
   <g id="patch_6">
    <path clip-path="url(#p6d198e8174)" d="M 125.365432 135.16538 
Q 108.34193 148.996976 92.186149 162.123547 
" style="fill:none;stroke:#000000;stroke-linecap:round;"/>
    <path clip-path="url(#p6d198e8174)" d="M 96.55179 161.153405 
L 92.186149 162.123547 
L 94.02942 158.048949 
L 96.55179 161.153405 
z
" style="stroke:#000000;stroke-linecap:round;"/>
   </g>
   <g id="patch_7">
    <path clip-path="url(#p6d198e8174)" d="M 137.634584 141.005385 
Q 137.634584 148.998672 137.634584 155.873926 
" style="fill:none;stroke:#000000;stroke-linecap:round;"/>
    <path clip-path="url(#p6d198e8174)" d="M 139.634584 151.873926 
L 137.634584 155.873926 
L 135.634584 151.873926 
L 139.634584 151.873926 
z
" style="stroke:#000000;stroke-linecap:round;"/>
   </g>
   <g id="patch_8">
    <path clip-path="url(#p6d198e8174)" d="M 69.016497 185.023334 
Q 59.516812 196.601076 50.726314 207.314495 
" style="fill:none;stroke:#000000;stroke-linecap:round;"/>
    <path clip-path="url(#p6d198e8174)" d="M 54.809727 205.490835 
L 50.726314 207.314495 
L 51.717434 202.953568 
L 54.809727 205.490835 
z
" style="stroke:#000000;stroke-linecap:round;"/>
   </g>
   <g id="patch_9">
    <path clip-path="url(#p6d198e8174)" d="M 79.0459 188.608691 
Q 79.0459 196.601978 79.0459 203.477231 
" style="fill:none;stroke:#000000;stroke-linecap:round;"/>
    <path clip-path="url(#p6d198e8174)" d="M 81.0459 199.477231 
L 79.0459 203.477231 
L 77.0459 199.477231 
L 81.0459 199.477231 
z
" style="stroke:#000000;stroke-linecap:round;"/>
   </g>
   <g id="patch_10">
    <path clip-path="url(#p6d198e8174)" d="M 131.632915 187.429068 
Q 127.870305 196.60043 124.532051 204.737423 
" style="fill:none;stroke:#000000;stroke-linecap:round;"/>
    <path clip-path="url(#p6d198e8174)" d="M 127.900614 201.795861 
L 124.532051 204.737423 
L 124.199939 200.277636 
L 127.900614 201.795861 
z
" style="stroke:#000000;stroke-linecap:round;"/>
   </g>
   <g id="patch_11">
    <path clip-path="url(#p6d198e8174)" d="M 143.636252 187.429068 
Q 147.398863 196.60043 150.737116 204.737423 
" style="fill:none;stroke:#000000;stroke-linecap:round;"/>
    <path clip-path="url(#p6d198e8174)" d="M 151.069228 200.277636 
L 150.737116 204.737423 
L 147.368553 201.795861 
L 151.069228 200.277636 
z
" style="stroke:#000000;stroke-linecap:round;"/>
   </g>
   <g id="patch_12">
    <path clip-path="url(#p6d198e8174)" d="M 248.810283 139.825762 
Q 245.047673 148.997124 241.709419 157.134117 
" style="fill:none;stroke:#000000;stroke-linecap:round;"/>
    <path clip-path="url(#p6d198e8174)" d="M 245.077982 154.192555 
L 241.709419 157.134117 
L 241.377307 152.67433 
L 245.077982 154.192555 
z
" style="stroke:#000000;stroke-linecap:round;"/>
   </g>
   <g id="patch_13">
    <path clip-path="url(#p6d198e8174)" d="M 260.81362 139.825762 
Q 264.576231 148.997124 267.914484 157.134117 
" style="fill:none;stroke:#000000;stroke-linecap:round;"/>
    <path clip-path="url(#p6d198e8174)" d="M 268.246596 152.67433 
L 267.914484 157.134117 
L 264.545921 154.192555 
L 268.246596 152.67433 
z
" style="stroke:#000000;stroke-linecap:round;"/>
   </g>
   <g id="patch_14">
    <path clip-path="url(#p6d198e8174)" d="M 225.252988 185.023334 
Q 215.753303 196.601076 206.962805 207.314495 
" style="fill:none;stroke:#000000;stroke-linecap:round;"/>
    <path clip-path="url(#p6d198e8174)" d="M 211.046218 205.490835 
L 206.962805 207.314495 
L 207.953924 202.953568 
L 211.046218 205.490835 
z
" style="stroke:#000000;stroke-linecap:round;"/>
   </g>
   <g id="patch_15">
    <path clip-path="url(#p6d198e8174)" d="M 235.28239 188.608691 
Q 235.28239 196.601978 235.28239 203.477231 
" style="fill:none;stroke:#000000;stroke-linecap:round;"/>
    <path clip-path="url(#p6d198e8174)" d="M 237.28239 199.477231 
L 235.28239 203.477231 
L 233.28239 199.477231 
L 237.28239 199.477231 
z
" style="stroke:#000000;stroke-linecap:round;"/>
   </g>
   <g id="patch_16">
    <path clip-path="url(#p6d198e8174)" d="M 274.341513 188.608691 
Q 274.341513 196.601978 274.341513 203.477231 
" style="fill:none;stroke:#000000;stroke-linecap:round;"/>
    <path clip-path="url(#p6d198e8174)" d="M 276.341513 199.477231 
L 274.341513 203.477231 
L 272.341513 199.477231 
L 276.341513 199.477231 
z
" style="stroke:#000000;stroke-linecap:round;"/>
   </g>
   <g id="patch_17">
    <path clip-path="url(#p6d198e8174)" d="M 306.813104 140.685783 
Q 308.518287 148.998551 309.998808 156.21609 
" style="fill:none;stroke:#000000;stroke-linecap:round;"/>
    <path clip-path="url(#p6d198e8174)" d="M 311.154237 151.895791 
L 309.998808 156.21609 
L 307.235826 152.699568 
L 311.154237 151.895791 
z
" style="stroke:#000000;stroke-linecap:round;"/>
   </g>
   <g id="patch_18">
    <path clip-path="url(#p6d198e8174)" d="M 313.400636 188.608691 
Q 313.400636 196.601978 313.400636 203.477231 
" style="fill:none;stroke:#000000;stroke-linecap:round;"/>
    <path clip-path="url(#p6d198e8174)" d="M 315.400636 199.477231 
L 313.400636 203.477231 
L 311.400636 199.477231 
L 315.400636 199.477231 
z
" style="stroke:#000000;stroke-linecap:round;"/>
   </g>
   <g id="patch_19">
    <path clip-path="url(#p6d198e8174)" d="M 323.430038 185.023334 
Q 332.929724 196.601076 341.720221 207.314495 
" style="fill:none;stroke:#000000;stroke-linecap:round;"/>
    <path clip-path="url(#p6d198e8174)" d="M 340.729102 202.953568 
L 341.720221 207.314495 
L 337.636808 205.490835 
L 340.729102 202.953568 
z
" style="stroke:#000000;stroke-linecap:round;"/>
   </g>
   <g id="patch_20">
    <path clip-path="url(#p6d198e8174)" d="M 303.371233 232.62664 
Q 293.871548 244.204382 285.08105 254.917801 
" style="fill:none;stroke:#000000;stroke-linecap:round;"/>
    <path clip-path="url(#p6d198e8174)" d="M 289.164463 253.094141 
L 285.08105 254.917801 
L 286.07217 250.556874 
L 289.164463 253.094141 
z
" style="stroke:#000000;stroke-linecap:round;"/>
   </g>
   <g id="patch_21">
    <path clip-path="url(#p6d198e8174)" d="M 313.400636 236.211996 
Q 313.400636 244.205284 313.400636 251.080537 
" style="fill:none;stroke:#000000;stroke-linecap:round;"/>
    <path clip-path="url(#p6d198e8174)" d="M 315.400636 247.080537 
L 313.400636 251.080537 
L 311.400636 247.080537 
L 315.400636 247.080537 
z
" style="stroke:#000000;stroke-linecap:round;"/>
   </g>
   <g id="patch_22">
    <path clip-path="url(#p6d198e8174)" d="M 352.459758 236.211996 
Q 352.459758 244.205284 352.459758 251.080537 
" style="fill:none;stroke:#000000;stroke-linecap:round;"/>
    <path clip-path="url(#p6d198e8174)" d="M 354.459758 247.080537 
L 352.459758 251.080537 
L 350.459758 247.080537 
L 354.459758 247.080537 
z
" style="stroke:#000000;stroke-linecap:round;"/>
   </g>
   <g id="patch_23">
    <path clip-path="url(#p6d198e8174)" d="M 362.489161 232.62664 
Q 371.988846 244.204382 380.779344 254.917801 
" style="fill:none;stroke:#000000;stroke-linecap:round;"/>
    <path clip-path="url(#p6d198e8174)" d="M 379.788224 250.556874 
L 380.779344 254.917801 
L 376.695931 253.094141 
L 379.788224 250.556874 
z
" style="stroke:#000000;stroke-linecap:round;"/>
   </g>
   <g id="patch_24">
    <path clip-path="url(#p6d198e8174)" d="M 307.398967 282.635679 
Q 303.636357 291.807042 300.298103 299.944034 
" style="fill:none;stroke:#000000;stroke-linecap:round;"/>
    <path clip-path="url(#p6d198e8174)" d="M 303.666666 297.002473 
L 300.298103 299.944034 
L 299.965992 295.484247 
L 303.666666 297.002473 
z
" style="stroke:#000000;stroke-linecap:round;"/>
   </g>
   <g id="patch_25">
    <path clip-path="url(#p6d198e8174)" d="M 319.402305 282.635679 
Q 323.164915 291.807042 326.503168 299.944034 
" style="fill:none;stroke:#000000;stroke-linecap:round;"/>
    <path clip-path="url(#p6d198e8174)" d="M 326.83528 295.484247 
L 326.503168 299.944034 
L 323.134605 297.002473 
L 326.83528 295.484247 
z
" style="stroke:#000000;stroke-linecap:round;"/>
   </g>
   <g id="patch_26">
    <path clip-path="url(#p6d198e8174)" d="M 388.341632 283.4957 
Q 386.636449 291.808468 385.155928 299.026007 
" style="fill:none;stroke:#000000;stroke-linecap:round;"/>
    <path clip-path="url(#p6d198e8174)" d="M 387.91891 295.509485 
L 385.155928 299.026007 
L 384.000499 294.705708 
L 387.91891 295.509485 
z
" style="stroke:#000000;stroke-linecap:round;"/>
   </g>
   <g id="patch_27">
    <path clip-path="url(#p6d198e8174)" d="M 399.80619 281.473489 
Q 406.167023 291.809843 411.941898 301.194014 
" style="fill:none;stroke:#000000;stroke-linecap:round;"/>
    <path clip-path="url(#p6d198e8174)" d="M 411.548825 296.739186 
L 411.941898 301.194014 
L 408.142192 298.835575 
L 411.548825 296.739186 
z
" style="stroke:#000000;stroke-linecap:round;"/>
   </g>
   <g id="text_1">
    <g id="patch_28">
     <path clip-path="url(#p6d198e8174)" d="M 246.972889 32.464392 
L 246.972889 75.119079 
Q 246.972889 78.119079 249.972889 78.119079 
L 259.651014 78.119079 
Q 262.651014 78.119079 262.651014 75.119079 
L 262.651014 32.464392 
Q 262.651014 29.464392 259.651014 29.464392 
L 249.972889 29.464392 
Q 246.972889 29.464392 246.972889 32.464392 
z
" style="fill:#ffffff;stroke:#ffffff;stroke-linejoin:miter;"/>
    </g>
    <g clip-path="url(#p6d198e8174)">
     <!-- body #0 -->
     <g transform="translate(252.052577 32.464392)rotate(-270)scale(0.1 -0.1)">
      <defs>
       <path d="M 3116 1747 
Q 3116 2381 2855 2742 
Q 2594 3103 2138 3103 
Q 1681 3103 1420 2742 
Q 1159 2381 1159 1747 
Q 1159 1113 1420 752 
Q 1681 391 2138 391 
Q 2594 391 2855 752 
Q 3116 1113 3116 1747 
z
M 1159 2969 
Q 1341 3281 1617 3432 
Q 1894 3584 2278 3584 
Q 2916 3584 3314 3078 
Q 3713 2572 3713 1747 
Q 3713 922 3314 415 
Q 2916 -91 2278 -91 
Q 1894 -91 1617 61 
Q 1341 213 1159 525 
L 1159 0 
L 581 0 
L 581 4863 
L 1159 4863 
L 1159 2969 
z
" id="DejaVuSans-62" transform="scale(0.015625)"/>
       <path d="M 1959 3097 
Q 1497 3097 1228 2736 
Q 959 2375 959 1747 
Q 959 1119 1226 758 
Q 1494 397 1959 397 
Q 2419 397 2687 759 
Q 2956 1122 2956 1747 
Q 2956 2369 2687 2733 
Q 2419 3097 1959 3097 
z
M 1959 3584 
Q 2709 3584 3137 3096 
Q 3566 2609 3566 1747 
Q 3566 888 3137 398 
Q 2709 -91 1959 -91 
Q 1206 -91 779 398 
Q 353 888 353 1747 
Q 353 2609 779 3096 
Q 1206 3584 1959 3584 
z
" id="DejaVuSans-6f" transform="scale(0.015625)"/>
       <path d="M 2906 2969 
L 2906 4863 
L 3481 4863 
L 3481 0 
L 2906 0 
L 2906 525 
Q 2725 213 2448 61 
Q 2172 -91 1784 -91 
Q 1150 -91 751 415 
Q 353 922 353 1747 
Q 353 2572 751 3078 
Q 1150 3584 1784 3584 
Q 2172 3584 2448 3432 
Q 2725 3281 2906 2969 
z
M 947 1747 
Q 947 1113 1208 752 
Q 1469 391 1925 391 
Q 2381 391 2643 752 
Q 2906 1113 2906 1747 
Q 2906 2381 2643 2742 
Q 2381 3103 1925 3103 
Q 1469 3103 1208 2742 
Q 947 2381 947 1747 
z
" id="DejaVuSans-64" transform="scale(0.015625)"/>
       <path d="M 2059 -325 
Q 1816 -950 1584 -1140 
Q 1353 -1331 966 -1331 
L 506 -1331 
L 506 -850 
L 844 -850 
Q 1081 -850 1212 -737 
Q 1344 -625 1503 -206 
L 1606 56 
L 191 3500 
L 800 3500 
L 1894 763 
L 2988 3500 
L 3597 3500 
L 2059 -325 
z
" id="DejaVuSans-79" transform="scale(0.015625)"/>
       <path id="DejaVuSans-20" transform="scale(0.015625)"/>
       <path d="M 3272 2816 
L 2363 2816 
L 2100 1772 
L 3016 1772 
L 3272 2816 
z
M 2803 4594 
L 2478 3297 
L 3391 3297 
L 3719 4594 
L 4219 4594 
L 3897 3297 
L 4872 3297 
L 4872 2816 
L 3775 2816 
L 3519 1772 
L 4513 1772 
L 4513 1294 
L 3397 1294 
L 3072 0 
L 2572 0 
L 2894 1294 
L 1978 1294 
L 1656 0 
L 1153 0 
L 1478 1294 
L 494 1294 
L 494 1772 
L 1594 1772 
L 1856 2816 
L 850 2816 
L 850 3297 
L 1978 3297 
L 2297 4594 
L 2803 4594 
z
" id="DejaVuSans-23" transform="scale(0.015625)"/>
       <path d="M 2034 4250 
Q 1547 4250 1301 3770 
Q 1056 3291 1056 2328 
Q 1056 1369 1301 889 
Q 1547 409 2034 409 
Q 2525 409 2770 889 
Q 3016 1369 3016 2328 
Q 3016 3291 2770 3770 
Q 2525 4250 2034 4250 
z
M 2034 4750 
Q 2819 4750 3233 4129 
Q 3647 3509 3647 2328 
Q 3647 1150 3233 529 
Q 2819 -91 2034 -91 
Q 1250 -91 836 529 
Q 422 1150 422 2328 
Q 422 3509 836 4129 
Q 1250 4750 2034 4750 
z
" id="DejaVuSans-30" transform="scale(0.015625)"/>
      </defs>
      <use xlink:href="#DejaVuSans-62"/>
      <use x="63.476562" xlink:href="#DejaVuSans-6f"/>
      <use x="124.658203" xlink:href="#DejaVuSans-64"/>
      <use x="188.134766" xlink:href="#DejaVuSans-79"/>
      <use x="247.314453" xlink:href="#DejaVuSans-20"/>
      <use x="279.101562" xlink:href="#DejaVuSans-23"/>
      <use x="362.890625" xlink:href="#DejaVuSans-30"/>
     </g>
    </g>
   </g>
   <g id="text_2">
    <g id="patch_29">
     <path clip-path="url(#p6d198e8174)" d="M 179.41464 116.684793 
L 218.932782 100.630548 
Q 221.712182 99.501417 220.583051 96.722017 
L 216.940426 87.755558 
Q 215.811295 84.976158 213.031896 86.105289 
L 173.513753 102.159535 
Q 170.734354 103.288666 171.863485 106.068066 
L 175.506109 115.034525 
Q 176.63524 117.813925 179.41464 116.684793 
z
" style="fill:#ffffff;stroke:#ffffff;stroke-linejoin:miter;"/>
    </g>
    <g clip-path="url(#p6d198e8174)">
     <!-- body #0 -->
     <g transform="translate(177.502762 111.978633)rotate(-22.109449)scale(0.1 -0.1)">
      <use xlink:href="#DejaVuSans-62"/>
      <use x="63.476562" xlink:href="#DejaVuSans-6f"/>
      <use x="124.658203" xlink:href="#DejaVuSans-64"/>
      <use x="188.134766" xlink:href="#DejaVuSans-79"/>
      <use x="247.314453" xlink:href="#DejaVuSans-20"/>
      <use x="279.101562" xlink:href="#DejaVuSans-23"/>
      <use x="362.890625" xlink:href="#DejaVuSans-30"/>
     </g>
    </g>
   </g>
   <g id="text_3">
    <g id="patch_30">
     <path clip-path="url(#p6d198e8174)" d="M 105.83159 161.137028 
L 120.735404 149.027679 
Q 123.063746 147.135901 121.171968 144.807559 
L 115.069013 137.296231 
Q 113.177236 134.967889 110.848894 136.859666 
L 95.945079 148.969016 
Q 93.616738 150.860793 95.508515 153.189135 
L 101.61147 160.700464 
Q 103.503248 163.028806 105.83159 161.137028 
z
" style="fill:#ffffff;stroke:#ffffff;stroke-linejoin:miter;"/>
    </g>
    <g clip-path="url(#p6d198e8174)">
     <!-- test -->
     <g transform="translate(102.628376 157.194611)rotate(-39.093859)scale(0.1 -0.1)">
      <defs>
       <path d="M 1172 4494 
L 1172 3500 
L 2356 3500 
L 2356 3053 
L 1172 3053 
L 1172 1153 
Q 1172 725 1289 603 
Q 1406 481 1766 481 
L 2356 481 
L 2356 0 
L 1766 0 
Q 1100 0 847 248 
Q 594 497 594 1153 
L 594 3053 
L 172 3053 
L 172 3500 
L 594 3500 
L 594 4494 
L 1172 4494 
z
" id="DejaVuSans-74" transform="scale(0.015625)"/>
       <path d="M 3597 1894 
L 3597 1613 
L 953 1613 
Q 991 1019 1311 708 
Q 1631 397 2203 397 
Q 2534 397 2845 478 
Q 3156 559 3463 722 
L 3463 178 
Q 3153 47 2828 -22 
Q 2503 -91 2169 -91 
Q 1331 -91 842 396 
Q 353 884 353 1716 
Q 353 2575 817 3079 
Q 1281 3584 2069 3584 
Q 2775 3584 3186 3129 
Q 3597 2675 3597 1894 
z
M 3022 2063 
Q 3016 2534 2758 2815 
Q 2500 3097 2075 3097 
Q 1594 3097 1305 2825 
Q 1016 2553 972 2059 
L 3022 2063 
z
" id="DejaVuSans-65" transform="scale(0.015625)"/>
       <path d="M 2834 3397 
L 2834 2853 
Q 2591 2978 2328 3040 
Q 2066 3103 1784 3103 
Q 1356 3103 1142 2972 
Q 928 2841 928 2578 
Q 928 2378 1081 2264 
Q 1234 2150 1697 2047 
L 1894 2003 
Q 2506 1872 2764 1633 
Q 3022 1394 3022 966 
Q 3022 478 2636 193 
Q 2250 -91 1575 -91 
Q 1294 -91 989 -36 
Q 684 19 347 128 
L 347 722 
Q 666 556 975 473 
Q 1284 391 1588 391 
Q 1994 391 2212 530 
Q 2431 669 2431 922 
Q 2431 1156 2273 1281 
Q 2116 1406 1581 1522 
L 1381 1569 
Q 847 1681 609 1914 
Q 372 2147 372 2553 
Q 372 3047 722 3315 
Q 1072 3584 1716 3584 
Q 2034 3584 2315 3537 
Q 2597 3491 2834 3397 
z
" id="DejaVuSans-73" transform="scale(0.015625)"/>
      </defs>
      <use xlink:href="#DejaVuSans-74"/>
      <use x="39.208984" xlink:href="#DejaVuSans-65"/>
      <use x="100.732422" xlink:href="#DejaVuSans-73"/>
      <use x="152.832031" xlink:href="#DejaVuSans-74"/>
     </g>
    </g>
   </g>
   <g id="text_4">
    <g id="patch_31">
     <path clip-path="url(#p6d198e8174)" d="M 71.206837 178.454778 
L 71.206837 214.748528 
Q 71.206837 217.748528 74.206837 217.748528 
L 83.884962 217.748528 
Q 86.884962 217.748528 86.884962 214.748528 
L 86.884962 178.454778 
Q 86.884962 175.454778 83.884962 175.454778 
L 74.206837 175.454778 
Q 71.206837 175.454778 71.206837 178.454778 
z
" style="fill:#ffffff;stroke:#ffffff;stroke-linejoin:miter;"/>
    </g>
    <g clip-path="url(#p6d198e8174)">
     <!-- cmp: Is -->
     <g transform="translate(76.286525 178.454778)rotate(-270)scale(0.1 -0.1)">
      <defs>
       <path d="M 3122 3366 
L 3122 2828 
Q 2878 2963 2633 3030 
Q 2388 3097 2138 3097 
Q 1578 3097 1268 2742 
Q 959 2388 959 1747 
Q 959 1106 1268 751 
Q 1578 397 2138 397 
Q 2388 397 2633 464 
Q 2878 531 3122 666 
L 3122 134 
Q 2881 22 2623 -34 
Q 2366 -91 2075 -91 
Q 1284 -91 818 406 
Q 353 903 353 1747 
Q 353 2603 823 3093 
Q 1294 3584 2113 3584 
Q 2378 3584 2631 3529 
Q 2884 3475 3122 3366 
z
" id="DejaVuSans-63" transform="scale(0.015625)"/>
       <path d="M 3328 2828 
Q 3544 3216 3844 3400 
Q 4144 3584 4550 3584 
Q 5097 3584 5394 3201 
Q 5691 2819 5691 2113 
L 5691 0 
L 5113 0 
L 5113 2094 
Q 5113 2597 4934 2840 
Q 4756 3084 4391 3084 
Q 3944 3084 3684 2787 
Q 3425 2491 3425 1978 
L 3425 0 
L 2847 0 
L 2847 2094 
Q 2847 2600 2669 2842 
Q 2491 3084 2119 3084 
Q 1678 3084 1418 2786 
Q 1159 2488 1159 1978 
L 1159 0 
L 581 0 
L 581 3500 
L 1159 3500 
L 1159 2956 
Q 1356 3278 1631 3431 
Q 1906 3584 2284 3584 
Q 2666 3584 2933 3390 
Q 3200 3197 3328 2828 
z
" id="DejaVuSans-6d" transform="scale(0.015625)"/>
       <path d="M 1159 525 
L 1159 -1331 
L 581 -1331 
L 581 3500 
L 1159 3500 
L 1159 2969 
Q 1341 3281 1617 3432 
Q 1894 3584 2278 3584 
Q 2916 3584 3314 3078 
Q 3713 2572 3713 1747 
Q 3713 922 3314 415 
Q 2916 -91 2278 -91 
Q 1894 -91 1617 61 
Q 1341 213 1159 525 
z
M 3116 1747 
Q 3116 2381 2855 2742 
Q 2594 3103 2138 3103 
Q 1681 3103 1420 2742 
Q 1159 2381 1159 1747 
Q 1159 1113 1420 752 
Q 1681 391 2138 391 
Q 2594 391 2855 752 
Q 3116 1113 3116 1747 
z
" id="DejaVuSans-70" transform="scale(0.015625)"/>
       <path d="M 750 794 
L 1409 794 
L 1409 0 
L 750 0 
L 750 794 
z
M 750 3309 
L 1409 3309 
L 1409 2516 
L 750 2516 
L 750 3309 
z
" id="DejaVuSans-3a" transform="scale(0.015625)"/>
       <path d="M 628 4666 
L 1259 4666 
L 1259 0 
L 628 0 
L 628 4666 
z
" id="DejaVuSans-49" transform="scale(0.015625)"/>
      </defs>
      <use xlink:href="#DejaVuSans-63"/>
      <use x="54.980469" xlink:href="#DejaVuSans-6d"/>
      <use x="152.392578" xlink:href="#DejaVuSans-70"/>
      <use x="215.869141" xlink:href="#DejaVuSans-3a"/>
      <use x="249.560547" xlink:href="#DejaVuSans-20"/>
      <use x="281.347656" xlink:href="#DejaVuSans-49"/>
      <use x="310.839844" xlink:href="#DejaVuSans-73"/>
     </g>
    </g>
   </g>
   <g id="text_5">
    <g id="patch_32">
     <path clip-path="url(#p6d198e8174)" d="M 129.795521 127.671003 
L 129.795521 170.325691 
Q 129.795521 173.325691 132.795521 173.325691 
L 142.473646 173.325691 
Q 145.473646 173.325691 145.473646 170.325691 
L 145.473646 127.671003 
Q 145.473646 124.671003 142.473646 124.671003 
L 132.795521 124.671003 
Q 129.795521 124.671003 129.795521 127.671003 
z
" style="fill:#ffffff;stroke:#ffffff;stroke-linejoin:miter;"/>
    </g>
    <g clip-path="url(#p6d198e8174)">
     <!-- body #0 -->
     <g transform="translate(134.875209 127.671003)rotate(-270)scale(0.1 -0.1)">
      <use xlink:href="#DejaVuSans-62"/>
      <use x="63.476562" xlink:href="#DejaVuSans-6f"/>
      <use x="124.658203" xlink:href="#DejaVuSans-64"/>
      <use x="188.134766" xlink:href="#DejaVuSans-79"/>
      <use x="247.314453" xlink:href="#DejaVuSans-20"/>
      <use x="279.101562" xlink:href="#DejaVuSans-23"/>
      <use x="362.890625" xlink:href="#DejaVuSans-30"/>
     </g>
    </g>
   </g>
   <g id="text_6">
    <g id="patch_33">
     <path clip-path="url(#p6d198e8174)" d="M 124.962305 224.341904 
L 145.28221 174.812134 
Q 146.420879 172.036628 143.645374 170.897959 
L 134.691476 167.224565 
Q 131.91597 166.085896 130.777301 168.861402 
L 110.457396 218.391171 
Q 109.318726 221.166677 112.094232 222.305346 
L 121.04813 225.97874 
Q 123.823636 227.117409 124.962305 224.341904 
z
" style="fill:#ffffff;stroke:#ffffff;stroke-linejoin:miter;"/>
    </g>
    <g clip-path="url(#p6d198e8174)">
     <!-- targets #0 -->
     <g transform="translate(120.262737 222.413876)rotate(-67.693795)scale(0.1 -0.1)">
      <defs>
       <path d="M 2194 1759 
Q 1497 1759 1228 1600 
Q 959 1441 959 1056 
Q 959 750 1161 570 
Q 1363 391 1709 391 
Q 2188 391 2477 730 
Q 2766 1069 2766 1631 
L 2766 1759 
L 2194 1759 
z
M 3341 1997 
L 3341 0 
L 2766 0 
L 2766 531 
Q 2569 213 2275 61 
Q 1981 -91 1556 -91 
Q 1019 -91 701 211 
Q 384 513 384 1019 
Q 384 1609 779 1909 
Q 1175 2209 1959 2209 
L 2766 2209 
L 2766 2266 
Q 2766 2663 2505 2880 
Q 2244 3097 1772 3097 
Q 1472 3097 1187 3025 
Q 903 2953 641 2809 
L 641 3341 
Q 956 3463 1253 3523 
Q 1550 3584 1831 3584 
Q 2591 3584 2966 3190 
Q 3341 2797 3341 1997 
z
" id="DejaVuSans-61" transform="scale(0.015625)"/>
       <path d="M 2631 2963 
Q 2534 3019 2420 3045 
Q 2306 3072 2169 3072 
Q 1681 3072 1420 2755 
Q 1159 2438 1159 1844 
L 1159 0 
L 581 0 
L 581 3500 
L 1159 3500 
L 1159 2956 
Q 1341 3275 1631 3429 
Q 1922 3584 2338 3584 
Q 2397 3584 2469 3576 
Q 2541 3569 2628 3553 
L 2631 2963 
z
" id="DejaVuSans-72" transform="scale(0.015625)"/>
       <path d="M 2906 1791 
Q 2906 2416 2648 2759 
Q 2391 3103 1925 3103 
Q 1463 3103 1205 2759 
Q 947 2416 947 1791 
Q 947 1169 1205 825 
Q 1463 481 1925 481 
Q 2391 481 2648 825 
Q 2906 1169 2906 1791 
z
M 3481 434 
Q 3481 -459 3084 -895 
Q 2688 -1331 1869 -1331 
Q 1566 -1331 1297 -1286 
Q 1028 -1241 775 -1147 
L 775 -588 
Q 1028 -725 1275 -790 
Q 1522 -856 1778 -856 
Q 2344 -856 2625 -561 
Q 2906 -266 2906 331 
L 2906 616 
Q 2728 306 2450 153 
Q 2172 0 1784 0 
Q 1141 0 747 490 
Q 353 981 353 1791 
Q 353 2603 747 3093 
Q 1141 3584 1784 3584 
Q 2172 3584 2450 3431 
Q 2728 3278 2906 2969 
L 2906 3500 
L 3481 3500 
L 3481 434 
z
" id="DejaVuSans-67" transform="scale(0.015625)"/>
      </defs>
      <use xlink:href="#DejaVuSans-74"/>
      <use x="39.208984" xlink:href="#DejaVuSans-61"/>
      <use x="100.488281" xlink:href="#DejaVuSans-72"/>
      <use x="139.851562" xlink:href="#DejaVuSans-67"/>
      <use x="203.328125" xlink:href="#DejaVuSans-65"/>
      <use x="264.851562" xlink:href="#DejaVuSans-74"/>
      <use x="304.060547" xlink:href="#DejaVuSans-73"/>
      <use x="356.160156" xlink:href="#DejaVuSans-20"/>
      <use x="387.947266" xlink:href="#DejaVuSans-23"/>
      <use x="471.736328" xlink:href="#DejaVuSans-30"/>
     </g>
    </g>
   </g>
   <g id="text_7">
    <g id="patch_34">
     <path clip-path="url(#p6d198e8174)" d="M 134.963 186.941239 
L 145.330819 212.212798 
Q 146.469488 214.988304 149.244994 213.849635 
L 158.198892 210.176241 
Q 160.974397 209.037572 159.835728 206.262066 
L 149.467909 180.990507 
Q 148.32924 178.215002 145.553734 179.353671 
L 136.599837 183.027064 
Q 133.824331 184.165734 134.963 186.941239 
z
" style="fill:#ffffff;stroke:#ffffff;stroke-linejoin:miter;"/>
    </g>
    <g clip-path="url(#p6d198e8174)">
     <!-- value -->
     <g transform="translate(139.662568 185.013212)rotate(-292.306205)scale(0.1 -0.1)">
      <defs>
       <path d="M 191 3500 
L 800 3500 
L 1894 563 
L 2988 3500 
L 3597 3500 
L 2284 0 
L 1503 0 
L 191 3500 
z
" id="DejaVuSans-76" transform="scale(0.015625)"/>
       <path d="M 603 4863 
L 1178 4863 
L 1178 0 
L 603 0 
L 603 4863 
z
" id="DejaVuSans-6c" transform="scale(0.015625)"/>
       <path d="M 544 1381 
L 544 3500 
L 1119 3500 
L 1119 1403 
Q 1119 906 1312 657 
Q 1506 409 1894 409 
Q 2359 409 2629 706 
Q 2900 1003 2900 1516 
L 2900 3500 
L 3475 3500 
L 3475 0 
L 2900 0 
L 2900 538 
Q 2691 219 2414 64 
Q 2138 -91 1772 -91 
Q 1169 -91 856 284 
Q 544 659 544 1381 
z
M 1991 3584 
L 1991 3584 
z
" id="DejaVuSans-75" transform="scale(0.015625)"/>
      </defs>
      <use xlink:href="#DejaVuSans-76"/>
      <use x="59.179688" xlink:href="#DejaVuSans-61"/>
      <use x="120.458984" xlink:href="#DejaVuSans-6c"/>
      <use x="148.242188" xlink:href="#DejaVuSans-75"/>
      <use x="211.621094" xlink:href="#DejaVuSans-65"/>
     </g>
    </g>
   </g>
   <g id="text_8">
    <g id="patch_35">
     <path clip-path="url(#p6d198e8174)" d="M 246.972889 80.067698 
L 246.972889 122.722385 
Q 246.972889 125.722385 249.972889 125.722385 
L 259.651014 125.722385 
Q 262.651014 125.722385 262.651014 122.722385 
L 262.651014 80.067698 
Q 262.651014 77.067698 259.651014 77.067698 
L 249.972889 77.067698 
Q 246.972889 77.067698 246.972889 80.067698 
z
" style="fill:#ffffff;stroke:#ffffff;stroke-linejoin:miter;"/>
    </g>
    <g clip-path="url(#p6d198e8174)">
     <!-- body #1 -->
     <g transform="translate(252.052577 80.067698)rotate(-270)scale(0.1 -0.1)">
      <defs>
       <path d="M 794 531 
L 1825 531 
L 1825 4091 
L 703 3866 
L 703 4441 
L 1819 4666 
L 2450 4666 
L 2450 531 
L 3481 531 
L 3481 0 
L 794 0 
L 794 531 
z
" id="DejaVuSans-31" transform="scale(0.015625)"/>
      </defs>
      <use xlink:href="#DejaVuSans-62"/>
      <use x="63.476562" xlink:href="#DejaVuSans-6f"/>
      <use x="124.658203" xlink:href="#DejaVuSans-64"/>
      <use x="188.134766" xlink:href="#DejaVuSans-79"/>
      <use x="247.314453" xlink:href="#DejaVuSans-20"/>
      <use x="279.101562" xlink:href="#DejaVuSans-23"/>
      <use x="362.890625" xlink:href="#DejaVuSans-31"/>
     </g>
    </g>
   </g>
   <g id="text_9">
    <g id="patch_36">
     <path clip-path="url(#p6d198e8174)" d="M 248.655292 160.856777 
L 255.94396 143.090649 
Q 257.082629 140.315143 254.307123 139.176474 
L 245.353225 135.50308 
Q 242.577719 134.364411 241.43905 137.139917 
L 234.150382 154.906045 
Q 233.011713 157.681551 235.787219 158.82022 
L 244.741117 162.493614 
Q 247.516623 163.632283 248.655292 160.856777 
z
" style="fill:#ffffff;stroke:#ffffff;stroke-linejoin:miter;"/>
    </g>
    <g clip-path="url(#p6d198e8174)">
     <!-- test -->
     <g transform="translate(243.955724 158.92875)rotate(-67.693795)scale(0.1 -0.1)">
      <use xlink:href="#DejaVuSans-74"/>
      <use x="39.208984" xlink:href="#DejaVuSans-65"/>
      <use x="100.732422" xlink:href="#DejaVuSans-73"/>
      <use x="152.832031" xlink:href="#DejaVuSans-74"/>
     </g>
    </g>
   </g>
   <g id="text_10">
    <g id="patch_37">
     <path clip-path="url(#p6d198e8174)" d="M 227.443328 188.221965 
L 227.443328 204.98134 
Q 227.443328 207.98134 230.443328 207.98134 
L 240.121453 207.98134 
Q 243.121453 207.98134 243.121453 204.98134 
L 243.121453 188.221965 
Q 243.121453 185.221965 240.121453 185.221965 
L 230.443328 185.221965 
Q 227.443328 185.221965 227.443328 188.221965 
z
" style="fill:#ffffff;stroke:#ffffff;stroke-linejoin:miter;"/>
    </g>
    <g clip-path="url(#p6d198e8174)">
     <!-- &lt;= -->
     <g transform="translate(232.523015 188.221965)rotate(-270)scale(0.1 -0.1)">
      <defs>
       <path d="M 4684 3150 
L 1459 2003 
L 4684 863 
L 4684 294 
L 678 1747 
L 678 2266 
L 4684 3719 
L 4684 3150 
z
" id="DejaVuSans-3c" transform="scale(0.015625)"/>
       <path d="M 678 2906 
L 4684 2906 
L 4684 2381 
L 678 2381 
L 678 2906 
z
M 678 1631 
L 4684 1631 
L 4684 1100 
L 678 1100 
L 678 1631 
z
" id="DejaVuSans-3d" transform="scale(0.015625)"/>
      </defs>
      <use xlink:href="#DejaVuSans-3c"/>
      <use x="83.789062" xlink:href="#DejaVuSans-3d"/>
     </g>
    </g>
   </g>
   <g id="text_11">
    <g id="patch_38">
     <path clip-path="url(#p6d198e8174)" d="M 249.229349 132.242324 
L 265.419207 171.705102 
Q 266.557876 174.480608 269.333382 173.341939 
L 278.287279 169.668545 
Q 281.062785 168.529876 279.924116 165.75437 
L 263.734258 126.291592 
Q 262.595589 123.516086 259.820083 124.654755 
L 250.866186 128.328149 
Q 248.09068 129.466818 249.229349 132.242324 
z
" style="fill:#ffffff;stroke:#ffffff;stroke-linejoin:miter;"/>
    </g>
    <g clip-path="url(#p6d198e8174)">
     <!-- body #0 -->
     <g transform="translate(253.928916 130.314296)rotate(-292.306205)scale(0.1 -0.1)">
      <use xlink:href="#DejaVuSans-62"/>
      <use x="63.476562" xlink:href="#DejaVuSans-6f"/>
      <use x="124.658203" xlink:href="#DejaVuSans-64"/>
      <use x="188.134766" xlink:href="#DejaVuSans-79"/>
      <use x="247.314453" xlink:href="#DejaVuSans-20"/>
      <use x="279.101562" xlink:href="#DejaVuSans-23"/>
      <use x="362.890625" xlink:href="#DejaVuSans-30"/>
     </g>
    </g>
   </g>
   <g id="text_12">
    <g id="patch_39">
     <path clip-path="url(#p6d198e8174)" d="M 266.502451 182.94384 
L 266.502451 210.259465 
Q 266.502451 213.259465 269.502451 213.259465 
L 279.180576 213.259465 
Q 282.180576 213.259465 282.180576 210.259465 
L 282.180576 182.94384 
Q 282.180576 179.94384 279.180576 179.94384 
L 269.502451 179.94384 
Q 266.502451 179.94384 266.502451 182.94384 
z
" style="fill:#ffffff;stroke:#ffffff;stroke-linejoin:miter;"/>
    </g>
    <g clip-path="url(#p6d198e8174)">
     <!-- value -->
     <g transform="translate(271.582138 182.94384)rotate(-270)scale(0.1 -0.1)">
      <use xlink:href="#DejaVuSans-76"/>
      <use x="59.179688" xlink:href="#DejaVuSans-61"/>
      <use x="120.458984" xlink:href="#DejaVuSans-6c"/>
      <use x="148.242188" xlink:href="#DejaVuSans-75"/>
      <use x="211.621094" xlink:href="#DejaVuSans-65"/>
     </g>
    </g>
   </g>
   <g id="text_13">
    <g id="patch_40">
     <path clip-path="url(#p6d198e8174)" d="M 258.481072 92.11919 
L 289.021834 121.896433 
Q 291.169834 123.990733 293.264135 121.842733 
L 300.020435 114.913194 
Q 302.114735 112.765194 299.966735 110.670893 
L 269.425973 80.89365 
Q 267.277973 78.799349 265.183672 80.94735 
L 258.427372 87.876889 
Q 256.333071 90.024889 258.481072 92.11919 
z
" style="fill:#ffffff;stroke:#ffffff;stroke-linejoin:miter;"/>
    </g>
    <g clip-path="url(#p6d198e8174)">
     <!-- body #2 -->
     <g transform="translate(262.027202 88.482133)rotate(-315.725224)scale(0.1 -0.1)">
      <defs>
       <path d="M 1228 531 
L 3431 531 
L 3431 0 
L 469 0 
L 469 531 
Q 828 903 1448 1529 
Q 2069 2156 2228 2338 
Q 2531 2678 2651 2914 
Q 2772 3150 2772 3378 
Q 2772 3750 2511 3984 
Q 2250 4219 1831 4219 
Q 1534 4219 1204 4116 
Q 875 4013 500 3803 
L 500 4441 
Q 881 4594 1212 4672 
Q 1544 4750 1819 4750 
Q 2544 4750 2975 4387 
Q 3406 4025 3406 3419 
Q 3406 3131 3298 2873 
Q 3191 2616 2906 2266 
Q 2828 2175 2409 1742 
Q 1991 1309 1228 531 
z
" id="DejaVuSans-32" transform="scale(0.015625)"/>
      </defs>
      <use xlink:href="#DejaVuSans-62"/>
      <use x="63.476562" xlink:href="#DejaVuSans-6f"/>
      <use x="124.658203" xlink:href="#DejaVuSans-64"/>
      <use x="188.134766" xlink:href="#DejaVuSans-79"/>
      <use x="247.314453" xlink:href="#DejaVuSans-20"/>
      <use x="279.101562" xlink:href="#DejaVuSans-23"/>
      <use x="362.890625" xlink:href="#DejaVuSans-32"/>
     </g>
    </g>
   </g>
   <g id="text_14">
    <g id="patch_41">
     <path clip-path="url(#p6d198e8174)" d="M 298.094621 137.194331 
L 303.583536 163.952791 
Q 304.186368 166.891599 307.125177 166.288766 
L 316.605894 164.344004 
Q 319.544702 163.741172 318.94187 160.802363 
L 313.452955 134.043903 
Q 312.850122 131.105095 309.911314 131.707928 
L 300.430597 133.65269 
Q 297.491789 134.255523 298.094621 137.194331 
z
" style="fill:#ffffff;stroke:#ffffff;stroke-linejoin:miter;"/>
    </g>
    <g clip-path="url(#p6d198e8174)">
     <!-- value -->
     <g transform="translate(303.070697 136.173597)rotate(-281.592175)scale(0.1 -0.1)">
      <use xlink:href="#DejaVuSans-76"/>
      <use x="59.179688" xlink:href="#DejaVuSans-61"/>
      <use x="120.458984" xlink:href="#DejaVuSans-6c"/>
      <use x="148.242188" xlink:href="#DejaVuSans-75"/>
      <use x="211.621094" xlink:href="#DejaVuSans-65"/>
     </g>
    </g>
   </g>
   <g id="text_15">
    <g id="patch_42">
     <path clip-path="url(#p6d198e8174)" d="M 305.561573 188.503215 
L 305.561573 204.70009 
Q 305.561573 207.70009 308.561573 207.70009 
L 318.239698 207.70009 
Q 321.239698 207.70009 321.239698 204.70009 
L 321.239698 188.503215 
Q 321.239698 185.503215 318.239698 185.503215 
L 308.561573 185.503215 
Q 305.561573 185.503215 305.561573 188.503215 
z
" style="fill:#ffffff;stroke:#ffffff;stroke-linejoin:miter;"/>
    </g>
    <g clip-path="url(#p6d198e8174)">
     <!-- left -->
     <g transform="translate(310.641261 188.503215)rotate(-270)scale(0.1 -0.1)">
      <defs>
       <path d="M 2375 4863 
L 2375 4384 
L 1825 4384 
Q 1516 4384 1395 4259 
Q 1275 4134 1275 3809 
L 1275 3500 
L 2222 3500 
L 2222 3053 
L 1275 3053 
L 1275 0 
L 697 0 
L 697 3053 
L 147 3053 
L 147 3500 
L 697 3500 
L 697 3744 
Q 697 4328 969 4595 
Q 1241 4863 1831 4863 
L 2375 4863 
z
" id="DejaVuSans-66" transform="scale(0.015625)"/>
      </defs>
      <use xlink:href="#DejaVuSans-6c"/>
      <use x="27.783203" xlink:href="#DejaVuSans-65"/>
      <use x="89.306641" xlink:href="#DejaVuSans-66"/>
      <use x="122.761719" xlink:href="#DejaVuSans-74"/>
     </g>
    </g>
   </g>
   <g id="text_16">
    <g id="patch_43">
     <path clip-path="url(#p6d198e8174)" d="M 319.418293 192.4923 
L 334.32176 210.655901 
Q 336.22471 212.975121 338.54393 211.072171 
L 346.025831 204.933176 
Q 348.345051 203.030226 346.442101 200.711006 
L 331.538634 182.547405 
Q 329.635684 180.228185 327.316464 182.131135 
L 319.834563 188.27013 
Q 317.515343 190.17308 319.418293 192.4923 
z
" style="fill:#ffffff;stroke:#ffffff;stroke-linejoin:miter;"/>
    </g>
    <g clip-path="url(#p6d198e8174)">
     <!-- right -->
     <g transform="translate(323.345264 189.27017)rotate(-309.369317)scale(0.1 -0.1)">
      <defs>
       <path d="M 603 3500 
L 1178 3500 
L 1178 0 
L 603 0 
L 603 3500 
z
M 603 4863 
L 1178 4863 
L 1178 4134 
L 603 4134 
L 603 4863 
z
" id="DejaVuSans-69" transform="scale(0.015625)"/>
       <path d="M 3513 2113 
L 3513 0 
L 2938 0 
L 2938 2094 
Q 2938 2591 2744 2837 
Q 2550 3084 2163 3084 
Q 1697 3084 1428 2787 
Q 1159 2491 1159 1978 
L 1159 0 
L 581 0 
L 581 4863 
L 1159 4863 
L 1159 2956 
Q 1366 3272 1645 3428 
Q 1925 3584 2291 3584 
Q 2894 3584 3203 3211 
Q 3513 2838 3513 2113 
z
" id="DejaVuSans-68" transform="scale(0.015625)"/>
      </defs>
      <use xlink:href="#DejaVuSans-72"/>
      <use x="41.113281" xlink:href="#DejaVuSans-69"/>
      <use x="68.896484" xlink:href="#DejaVuSans-67"/>
      <use x="132.373047" xlink:href="#DejaVuSans-68"/>
      <use x="195.751953" xlink:href="#DejaVuSans-74"/>
     </g>
    </g>
   </g>
   <g id="text_17">
    <g id="patch_44">
     <path clip-path="url(#p6d198e8174)" d="M 291.032972 260.022176 
L 308.829518 238.332636 
Q 310.732467 236.013416 308.413247 234.110466 
L 300.931347 227.971471 
Q 298.612126 226.068521 296.709177 228.387741 
L 278.912631 250.077281 
Q 277.009681 252.396501 279.328901 254.299451 
L 286.810802 260.438446 
Q 289.130022 262.341396 291.032972 260.022176 
z
" style="fill:#ffffff;stroke:#ffffff;stroke-linejoin:miter;"/>
    </g>
    <g clip-path="url(#p6d198e8174)">
     <!-- $func -->
     <g transform="translate(287.106001 256.800046)rotate(-50.630683)scale(0.1 -0.1)">
      <defs>
       <path d="M 2163 -941 
L 1850 -941 
L 1847 0 
Q 1519 6 1191 76 
Q 863 147 531 288 
L 531 850 
Q 850 650 1176 548 
Q 1503 447 1850 444 
L 1850 1869 
Q 1159 1981 845 2250 
Q 531 2519 531 2988 
Q 531 3497 872 3790 
Q 1213 4084 1850 4128 
L 1850 4863 
L 2163 4863 
L 2163 4138 
Q 2453 4125 2725 4076 
Q 2997 4028 3256 3944 
L 3256 3397 
Q 2997 3528 2723 3600 
Q 2450 3672 2163 3684 
L 2163 2350 
Q 2872 2241 3206 1959 
Q 3541 1678 3541 1191 
Q 3541 663 3186 358 
Q 2831 53 2163 6 
L 2163 -941 
z
M 1850 2406 
L 1850 3688 
Q 1488 3647 1297 3481 
Q 1106 3316 1106 3041 
Q 1106 2772 1282 2622 
Q 1459 2472 1850 2406 
z
M 2163 1806 
L 2163 453 
Q 2559 506 2761 678 
Q 2963 850 2963 1131 
Q 2963 1406 2770 1568 
Q 2578 1731 2163 1806 
z
" id="DejaVuSans-24" transform="scale(0.015625)"/>
       <path d="M 3513 2113 
L 3513 0 
L 2938 0 
L 2938 2094 
Q 2938 2591 2744 2837 
Q 2550 3084 2163 3084 
Q 1697 3084 1428 2787 
Q 1159 2491 1159 1978 
L 1159 0 
L 581 0 
L 581 3500 
L 1159 3500 
L 1159 2956 
Q 1366 3272 1645 3428 
Q 1925 3584 2291 3584 
Q 2894 3584 3203 3211 
Q 3513 2838 3513 2113 
z
" id="DejaVuSans-6e" transform="scale(0.015625)"/>
      </defs>
      <use xlink:href="#DejaVuSans-24"/>
      <use x="63.623047" xlink:href="#DejaVuSans-66"/>
      <use x="98.828125" xlink:href="#DejaVuSans-75"/>
      <use x="162.207031" xlink:href="#DejaVuSans-6e"/>
      <use x="225.585938" xlink:href="#DejaVuSans-63"/>
     </g>
    </g>
   </g>
   <g id="text_18">
    <g id="patch_45">
     <path clip-path="url(#p6d198e8174)" d="M 305.561573 236.833865 
L 305.561573 251.576052 
Q 305.561573 254.576052 308.561573 254.576052 
L 318.239698 254.576052 
Q 321.239698 254.576052 321.239698 251.576052 
L 321.239698 236.833865 
Q 321.239698 233.833865 318.239698 233.833865 
L 308.561573 233.833865 
Q 305.561573 233.833865 305.561573 236.833865 
z
" style="fill:#ffffff;stroke:#ffffff;stroke-linejoin:miter;"/>
    </g>
    <g clip-path="url(#p6d198e8174)">
     <!-- #0 -->
     <g transform="translate(310.641261 236.833865)rotate(-270)scale(0.1 -0.1)">
      <use xlink:href="#DejaVuSans-23"/>
      <use x="83.789062" xlink:href="#DejaVuSans-30"/>
     </g>
    </g>
   </g>
   <g id="text_19">
    <g id="patch_46">
     <path clip-path="url(#p6d198e8174)" d="M 307.814496 302.276051 
L 313.962123 287.29121 
Q 315.100792 284.515704 312.325286 283.377035 
L 303.371389 279.703641 
Q 300.595883 278.564972 299.457214 281.340478 
L 293.309587 296.325319 
Q 292.170918 299.100825 294.946424 300.239494 
L 303.900321 303.912887 
Q 306.675827 305.051557 307.814496 302.276051 
z
" style="fill:#ffffff;stroke:#ffffff;stroke-linejoin:miter;"/>
    </g>
    <g clip-path="url(#p6d198e8174)">
     <!-- left -->
     <g transform="translate(303.114929 300.348023)rotate(-67.693795)scale(0.1 -0.1)">
      <use xlink:href="#DejaVuSans-6c"/>
      <use x="27.783203" xlink:href="#DejaVuSans-65"/>
      <use x="89.306641" xlink:href="#DejaVuSans-66"/>
      <use x="122.761719" xlink:href="#DejaVuSans-74"/>
     </g>
    </g>
   </g>
   <g id="text_20">
    <g id="patch_47">
     <path clip-path="url(#p6d198e8174)" d="M 311.454064 283.915068 
L 320.371859 305.652193 
Q 321.510528 308.427699 324.286034 307.28903 
L 333.239932 303.615636 
Q 336.015438 302.476967 334.876769 299.701461 
L 325.958973 277.964336 
Q 324.820304 275.18883 322.044799 276.327499 
L 313.090901 280.000893 
Q 310.315395 281.139562 311.454064 283.915068 
z
" style="fill:#ffffff;stroke:#ffffff;stroke-linejoin:miter;"/>
    </g>
    <g clip-path="url(#p6d198e8174)">
     <!-- right -->
     <g transform="translate(316.153632 281.98704)rotate(-292.306205)scale(0.1 -0.1)">
      <use xlink:href="#DejaVuSans-72"/>
      <use x="41.113281" xlink:href="#DejaVuSans-69"/>
      <use x="68.896484" xlink:href="#DejaVuSans-67"/>
      <use x="132.373047" xlink:href="#DejaVuSans-68"/>
      <use x="195.751953" xlink:href="#DejaVuSans-74"/>
     </g>
    </g>
   </g>
   <g id="text_21">
    <g id="patch_48">
     <path clip-path="url(#p6d198e8174)" d="M 344.620696 230.176834 
L 344.620696 258.233084 
Q 344.620696 261.233084 347.620696 261.233084 
L 357.298821 261.233084 
Q 360.298821 261.233084 360.298821 258.233084 
L 360.298821 230.176834 
Q 360.298821 227.176834 357.298821 227.176834 
L 347.620696 227.176834 
Q 344.620696 227.176834 344.620696 230.176834 
z
" style="fill:#ffffff;stroke:#ffffff;stroke-linejoin:miter;"/>
    </g>
    <g clip-path="url(#p6d198e8174)">
     <!-- $func -->
     <g transform="translate(349.700383 230.176834)rotate(-270)scale(0.1 -0.1)">
      <use xlink:href="#DejaVuSans-24"/>
      <use x="63.623047" xlink:href="#DejaVuSans-66"/>
      <use x="98.828125" xlink:href="#DejaVuSans-75"/>
      <use x="162.207031" xlink:href="#DejaVuSans-6e"/>
      <use x="225.585938" xlink:href="#DejaVuSans-63"/>
     </g>
    </g>
   </g>
   <g id="text_22">
    <g id="patch_49">
     <path clip-path="url(#p6d198e8174)" d="M 361.253542 243.47901 
L 370.604756 254.875803 
Q 372.507706 257.195023 374.826926 255.292073 
L 382.308827 249.153077 
Q 384.628047 247.250128 382.725097 244.930907 
L 373.373883 233.534115 
Q 371.470933 231.214895 369.151713 233.117845 
L 361.669812 239.25684 
Q 359.350592 241.15979 361.253542 243.47901 
z
" style="fill:#ffffff;stroke:#ffffff;stroke-linejoin:miter;"/>
    </g>
    <g clip-path="url(#p6d198e8174)">
     <!-- #0 -->
     <g transform="translate(365.180513 240.25688)rotate(-309.369317)scale(0.1 -0.1)">
      <use xlink:href="#DejaVuSans-23"/>
      <use x="83.789062" xlink:href="#DejaVuSans-30"/>
     </g>
    </g>
   </g>
   <g id="text_23">
    <g id="patch_50">
     <path clip-path="url(#p6d198e8174)" d="M 392.688324 301.316729 
L 395.942991 285.450227 
Q 396.545824 282.511419 393.607015 281.908586 
L 384.126298 279.963824 
Q 381.18749 279.360991 380.584658 282.2998 
L 377.32999 298.166302 
Q 376.727158 301.10511 379.665966 301.707943 
L 389.146684 303.652705 
Q 392.085492 304.255537 392.688324 301.316729 
z
" style="fill:#ffffff;stroke:#ffffff;stroke-linejoin:miter;"/>
    </g>
    <g clip-path="url(#p6d198e8174)">
     <!-- left -->
     <g transform="translate(387.712248 300.295996)rotate(-78.407825)scale(0.1 -0.1)">
      <use xlink:href="#DejaVuSans-6c"/>
      <use x="27.783203" xlink:href="#DejaVuSans-65"/>
      <use x="89.306641" xlink:href="#DejaVuSans-66"/>
      <use x="122.761719" xlink:href="#DejaVuSans-74"/>
     </g>
    </g>
   </g>
   <g id="text_24">
    <g id="patch_51">
     <path clip-path="url(#p6d198e8174)" d="M 393.332933 285.911708 
L 405.646766 305.921686 
Q 407.219058 308.476661 409.774033 306.904369 
L 418.016489 301.832088 
Q 420.571464 300.259796 418.999171 297.704821 
L 406.685339 277.694843 
Q 405.113046 275.139868 402.558071 276.71216 
L 394.315616 281.784441 
Q 391.760641 283.356733 393.332933 285.911708 
z
" style="fill:#ffffff;stroke:#ffffff;stroke-linejoin:miter;"/>
    </g>
    <g clip-path="url(#p6d198e8174)">
     <!-- right -->
     <g transform="translate(397.659091 283.249457)rotate(-301.607502)scale(0.1 -0.1)">
      <use xlink:href="#DejaVuSans-72"/>
      <use x="41.113281" xlink:href="#DejaVuSans-69"/>
      <use x="68.896484" xlink:href="#DejaVuSans-67"/>
      <use x="132.373047" xlink:href="#DejaVuSans-68"/>
      <use x="195.751953" xlink:href="#DejaVuSans-74"/>
     </g>
    </g>
   </g>
   <g id="PathCollection_1">
    <defs>
     <path d="M -11.18034 11.18034 
L 11.18034 11.18034 
L 11.18034 -11.18034 
L -11.18034 -11.18034 
z
" id="C0_0_ee122bf0d5"/>
    </defs>
    <g clip-path="url(#p6d198e8174)">
     <use style="fill:#abc7ed;stroke:#abc7ed;" x="254.811952" xlink:href="#C0_0_ee122bf0d5" y="29.990083"/>
    </g>
    <g clip-path="url(#p6d198e8174)">
     <use style="fill:#abc7ed;stroke:#abc7ed;" x="254.811952" xlink:href="#C0_0_ee122bf0d5" y="77.593388"/>
    </g>
    <g clip-path="url(#p6d198e8174)">
     <use style="fill:#abc7ed;stroke:#abc7ed;" x="137.634584" xlink:href="#C0_0_ee122bf0d5" y="125.196694"/>
    </g>
    <g clip-path="url(#p6d198e8174)">
     <use style="fill:#eddeab;stroke:#eddeab;" x="79.0459" xlink:href="#C0_0_ee122bf0d5" y="172.8"/>
    </g>
    <g clip-path="url(#p6d198e8174)">
     <use style="fill:#008000;stroke:#008000;" x="39.986777" xlink:href="#C0_0_ee122bf0d5" y="220.403306"/>
    </g>
    <g clip-path="url(#p6d198e8174)">
     <use style="fill:#800080;stroke:#800080;" x="79.0459" xlink:href="#C0_0_ee122bf0d5" y="220.403306"/>
    </g>
    <g clip-path="url(#p6d198e8174)">
     <use style="fill:#abc7ed;stroke:#abc7ed;" x="137.634584" xlink:href="#C0_0_ee122bf0d5" y="172.8"/>
    </g>
    <g clip-path="url(#p6d198e8174)">
     <use style="fill:#008000;stroke:#008000;" x="118.105022" xlink:href="#C0_0_ee122bf0d5" y="220.403306"/>
    </g>
    <g clip-path="url(#p6d198e8174)">
     <use style="fill:#008000;stroke:#008000;" x="157.164145" xlink:href="#C0_0_ee122bf0d5" y="220.403306"/>
    </g>
    <g clip-path="url(#p6d198e8174)">
     <use style="fill:#abc7ed;stroke:#abc7ed;" x="254.811952" xlink:href="#C0_0_ee122bf0d5" y="125.196694"/>
    </g>
    <g clip-path="url(#p6d198e8174)">
     <use style="fill:#eddeab;stroke:#eddeab;" x="235.28239" xlink:href="#C0_0_ee122bf0d5" y="172.8"/>
    </g>
    <g clip-path="url(#p6d198e8174)">
     <use style="fill:#008000;stroke:#008000;" x="196.223268" xlink:href="#C0_0_ee122bf0d5" y="220.403306"/>
    </g>
    <g clip-path="url(#p6d198e8174)">
     <use style="fill:#800080;stroke:#800080;" x="235.28239" xlink:href="#C0_0_ee122bf0d5" y="220.403306"/>
    </g>
    <g clip-path="url(#p6d198e8174)">
     <use style="fill:#abc7ed;stroke:#abc7ed;" x="274.341513" xlink:href="#C0_0_ee122bf0d5" y="172.8"/>
    </g>
    <g clip-path="url(#p6d198e8174)">
     <use style="fill:#800080;stroke:#800080;" x="274.341513" xlink:href="#C0_0_ee122bf0d5" y="220.403306"/>
    </g>
    <g clip-path="url(#p6d198e8174)">
     <use style="fill:#abc7ed;stroke:#abc7ed;" x="303.635855" xlink:href="#C0_0_ee122bf0d5" y="125.196694"/>
    </g>
    <g clip-path="url(#p6d198e8174)">
     <use style="fill:#abedd3;stroke:#abedd3;" x="313.400636" xlink:href="#C0_0_ee122bf0d5" y="172.8"/>
    </g>
    <g clip-path="url(#p6d198e8174)">
     <use style="fill:#ffff00;stroke:#ffff00;" x="313.400636" xlink:href="#C0_0_ee122bf0d5" y="220.403306"/>
    </g>
    <g clip-path="url(#p6d198e8174)">
     <use style="fill:#ffff00;stroke:#ffff00;" x="352.459758" xlink:href="#C0_0_ee122bf0d5" y="220.403306"/>
    </g>
    <g clip-path="url(#p6d198e8174)">
     <use style="fill:#008000;stroke:#008000;" x="274.341513" xlink:href="#C0_0_ee122bf0d5" y="268.006612"/>
    </g>
    <g clip-path="url(#p6d198e8174)">
     <use style="fill:#abedd3;stroke:#abedd3;" x="313.400636" xlink:href="#C0_0_ee122bf0d5" y="268.006612"/>
    </g>
    <g clip-path="url(#p6d198e8174)">
     <use style="fill:#008000;stroke:#008000;" x="293.871074" xlink:href="#C0_0_ee122bf0d5" y="315.609917"/>
    </g>
    <g clip-path="url(#p6d198e8174)">
     <use style="fill:#800080;stroke:#800080;" x="332.930197" xlink:href="#C0_0_ee122bf0d5" y="315.609917"/>
    </g>
    <g clip-path="url(#p6d198e8174)">
     <use style="fill:#008000;stroke:#008000;" x="352.459758" xlink:href="#C0_0_ee122bf0d5" y="268.006612"/>
    </g>
    <g clip-path="url(#p6d198e8174)">
     <use style="fill:#abedd3;stroke:#abedd3;" x="391.518881" xlink:href="#C0_0_ee122bf0d5" y="268.006612"/>
    </g>
    <g clip-path="url(#p6d198e8174)">
     <use style="fill:#008000;stroke:#008000;" x="381.7541" xlink:href="#C0_0_ee122bf0d5" y="315.609917"/>
    </g>
    <g clip-path="url(#p6d198e8174)">
     <use style="fill:#800080;stroke:#800080;" x="420.813223" xlink:href="#C0_0_ee122bf0d5" y="315.609917"/>
    </g>
   </g>
   <g id="text_25">
    <g clip-path="url(#p6d198e8174)">
     <!-- compare -->
     <g transform="translate(61.496525 175.0075)scale(0.08 -0.08)">
      <use xlink:href="#DejaVuSans-63"/>
      <use x="54.980469" xlink:href="#DejaVuSans-6f"/>
      <use x="116.162109" xlink:href="#DejaVuSans-6d"/>
      <use x="213.574219" xlink:href="#DejaVuSans-70"/>
      <use x="277.050781" xlink:href="#DejaVuSans-61"/>
      <use x="338.330078" xlink:href="#DejaVuSans-72"/>
      <use x="377.193359" xlink:href="#DejaVuSans-65"/>
     </g>
    </g>
   </g>
   <g id="text_26">
    <g clip-path="url(#p6d198e8174)">
     <!-- next_fib -->
     <g transform="translate(24.066152 222.499556)scale(0.08 -0.08)">
      <defs>
       <path d="M 3513 3500 
L 2247 1797 
L 3578 0 
L 2900 0 
L 1881 1375 
L 863 0 
L 184 0 
L 1544 1831 
L 300 3500 
L 978 3500 
L 1906 2253 
L 2834 3500 
L 3513 3500 
z
" id="DejaVuSans-78" transform="scale(0.015625)"/>
       <path d="M 3263 -1063 
L 3263 -1509 
L -63 -1509 
L -63 -1063 
L 3263 -1063 
z
" id="DejaVuSans-5f" transform="scale(0.015625)"/>
      </defs>
      <use xlink:href="#DejaVuSans-6e"/>
      <use x="63.378906" xlink:href="#DejaVuSans-65"/>
      <use x="123.152344" xlink:href="#DejaVuSans-78"/>
      <use x="182.332031" xlink:href="#DejaVuSans-74"/>
      <use x="221.541016" xlink:href="#DejaVuSans-5f"/>
      <use x="271.541016" xlink:href="#DejaVuSans-66"/>
      <use x="306.746094" xlink:href="#DejaVuSans-69"/>
      <use x="334.529297" xlink:href="#DejaVuSans-62"/>
     </g>
    </g>
   </g>
   <g id="text_27">
    <g clip-path="url(#p6d198e8174)">
     <!-- next_fib -->
     <g transform="translate(102.184397 222.499556)scale(0.08 -0.08)">
      <use xlink:href="#DejaVuSans-6e"/>
      <use x="63.378906" xlink:href="#DejaVuSans-65"/>
      <use x="123.152344" xlink:href="#DejaVuSans-78"/>
      <use x="182.332031" xlink:href="#DejaVuSans-74"/>
      <use x="221.541016" xlink:href="#DejaVuSans-5f"/>
      <use x="271.541016" xlink:href="#DejaVuSans-66"/>
      <use x="306.746094" xlink:href="#DejaVuSans-69"/>
      <use x="334.529297" xlink:href="#DejaVuSans-62"/>
     </g>
    </g>
   </g>
   <g id="text_28">
    <g clip-path="url(#p6d198e8174)">
     <!-- fib -->
     <g transform="translate(152.105395 222.610806)scale(0.08 -0.08)">
      <use xlink:href="#DejaVuSans-66"/>
      <use x="35.205078" xlink:href="#DejaVuSans-69"/>
      <use x="62.988281" xlink:href="#DejaVuSans-62"/>
     </g>
    </g>
   </g>
   <g id="text_29">
    <g clip-path="url(#p6d198e8174)">
     <!-- Assign -->
     <g transform="translate(124.545209 175.0075)scale(0.08 -0.08)">
      <defs>
       <path d="M 2188 4044 
L 1331 1722 
L 3047 1722 
L 2188 4044 
z
M 1831 4666 
L 2547 4666 
L 4325 0 
L 3669 0 
L 3244 1197 
L 1141 1197 
L 716 0 
L 50 0 
L 1831 4666 
z
" id="DejaVuSans-41" transform="scale(0.015625)"/>
      </defs>
      <use xlink:href="#DejaVuSans-41"/>
      <use x="68.408203" xlink:href="#DejaVuSans-73"/>
      <use x="120.507812" xlink:href="#DejaVuSans-73"/>
      <use x="172.607422" xlink:href="#DejaVuSans-69"/>
      <use x="200.390625" xlink:href="#DejaVuSans-67"/>
      <use x="263.867188" xlink:href="#DejaVuSans-6e"/>
     </g>
    </g>
   </g>
   <g id="text_30">
    <g clip-path="url(#p6d198e8174)">
     <!-- If -->
     <g transform="translate(135.046459 127.404194)scale(0.08 -0.08)">
      <use xlink:href="#DejaVuSans-49"/>
      <use x="29.492188" xlink:href="#DejaVuSans-66"/>
     </g>
    </g>
   </g>
   <g id="text_31">
    <g clip-path="url(#p6d198e8174)">
     <!-- compare -->
     <g transform="translate(217.733015 175.0075)scale(0.08 -0.08)">
      <use xlink:href="#DejaVuSans-63"/>
      <use x="54.980469" xlink:href="#DejaVuSans-6f"/>
      <use x="116.162109" xlink:href="#DejaVuSans-6d"/>
      <use x="213.574219" xlink:href="#DejaVuSans-70"/>
      <use x="277.050781" xlink:href="#DejaVuSans-61"/>
      <use x="338.330078" xlink:href="#DejaVuSans-72"/>
      <use x="377.193359" xlink:href="#DejaVuSans-65"/>
     </g>
    </g>
   </g>
   <g id="text_32">
    <g clip-path="url(#p6d198e8174)">
     <!-- n -->
     <g transform="translate(193.688268 222.610806)scale(0.08 -0.08)">
      <use xlink:href="#DejaVuSans-6e"/>
     </g>
    </g>
   </g>
   <g id="text_33">
    <g clip-path="url(#p6d198e8174)">
     <!-- 1 -->
     <g transform="translate(232.73739 222.610806)scale(0.08 -0.08)">
      <use xlink:href="#DejaVuSans-31"/>
     </g>
    </g>
   </g>
   <g id="text_34">
    <g clip-path="url(#p6d198e8174)">
     <!-- 1 -->
     <g transform="translate(271.796513 222.610806)scale(0.08 -0.08)">
      <use xlink:href="#DejaVuSans-31"/>
     </g>
    </g>
   </g>
   <g id="text_35">
    <g clip-path="url(#p6d198e8174)">
     <!-- Return -->
     <g transform="translate(261.068388 175.0075)scale(0.08 -0.08)">
      <defs>
       <path d="M 2841 2188 
Q 3044 2119 3236 1894 
Q 3428 1669 3622 1275 
L 4263 0 
L 3584 0 
L 2988 1197 
Q 2756 1666 2539 1819 
Q 2322 1972 1947 1972 
L 1259 1972 
L 1259 0 
L 628 0 
L 628 4666 
L 2053 4666 
Q 2853 4666 3247 4331 
Q 3641 3997 3641 3322 
Q 3641 2881 3436 2590 
Q 3231 2300 2841 2188 
z
M 1259 4147 
L 1259 2491 
L 2053 2491 
Q 2509 2491 2742 2702 
Q 2975 2913 2975 3322 
Q 2975 3731 2742 3939 
Q 2509 4147 2053 4147 
L 1259 4147 
z
" id="DejaVuSans-52" transform="scale(0.015625)"/>
      </defs>
      <use xlink:href="#DejaVuSans-52"/>
      <use x="64.982422" xlink:href="#DejaVuSans-65"/>
      <use x="126.505859" xlink:href="#DejaVuSans-74"/>
      <use x="165.714844" xlink:href="#DejaVuSans-75"/>
      <use x="229.09375" xlink:href="#DejaVuSans-72"/>
      <use x="268.457031" xlink:href="#DejaVuSans-6e"/>
     </g>
    </g>
   </g>
   <g id="text_36">
    <g clip-path="url(#p6d198e8174)">
     <!-- If -->
     <g transform="translate(252.223827 127.404194)scale(0.08 -0.08)">
      <use xlink:href="#DejaVuSans-49"/>
      <use x="29.492188" xlink:href="#DejaVuSans-66"/>
     </g>
    </g>
   </g>
   <g id="text_37">
    <g clip-path="url(#p6d198e8174)">
     <!-- + -->
     <g transform="translate(310.048761 175.0075)scale(0.08 -0.08)">
      <defs>
       <path d="M 2944 4013 
L 2944 2272 
L 4684 2272 
L 4684 1741 
L 2944 1741 
L 2944 0 
L 2419 0 
L 2419 1741 
L 678 1741 
L 678 2272 
L 2419 2272 
L 2419 4013 
L 2944 4013 
z
" id="DejaVuSans-2b" transform="scale(0.015625)"/>
      </defs>
      <use xlink:href="#DejaVuSans-2b"/>
     </g>
    </g>
   </g>
   <g id="text_38">
    <g clip-path="url(#p6d198e8174)">
     <!-- next_fib -->
     <g transform="translate(258.420888 270.102862)scale(0.08 -0.08)">
      <use xlink:href="#DejaVuSans-6e"/>
      <use x="63.378906" xlink:href="#DejaVuSans-65"/>
      <use x="123.152344" xlink:href="#DejaVuSans-78"/>
      <use x="182.332031" xlink:href="#DejaVuSans-74"/>
      <use x="221.541016" xlink:href="#DejaVuSans-5f"/>
      <use x="271.541016" xlink:href="#DejaVuSans-66"/>
      <use x="306.746094" xlink:href="#DejaVuSans-69"/>
      <use x="334.529297" xlink:href="#DejaVuSans-62"/>
     </g>
    </g>
   </g>
   <g id="text_39">
    <g clip-path="url(#p6d198e8174)">
     <!-- - -->
     <g transform="translate(311.957511 270.214112)scale(0.08 -0.08)">
      <defs>
       <path d="M 313 2009 
L 1997 2009 
L 1997 1497 
L 313 1497 
L 313 2009 
z
" id="DejaVuSans-2d" transform="scale(0.015625)"/>
      </defs>
      <use xlink:href="#DejaVuSans-2d"/>
     </g>
    </g>
   </g>
   <g id="text_40">
    <g clip-path="url(#p6d198e8174)">
     <!-- n -->
     <g transform="translate(291.336074 317.817417)scale(0.08 -0.08)">
      <use xlink:href="#DejaVuSans-6e"/>
     </g>
    </g>
   </g>
   <g id="text_41">
    <g clip-path="url(#p6d198e8174)">
     <!-- 1 -->
     <g transform="translate(330.385197 317.817417)scale(0.08 -0.08)">
      <use xlink:href="#DejaVuSans-31"/>
     </g>
    </g>
   </g>
   <g id="text_42">
    <g clip-path="url(#p6d198e8174)">
     <!-- $func (#0) -->
     <g transform="translate(291.888761 222.610806)scale(0.08 -0.08)">
      <defs>
       <path d="M 1984 4856 
Q 1566 4138 1362 3434 
Q 1159 2731 1159 2009 
Q 1159 1288 1364 580 
Q 1569 -128 1984 -844 
L 1484 -844 
Q 1016 -109 783 600 
Q 550 1309 550 2009 
Q 550 2706 781 3412 
Q 1013 4119 1484 4856 
L 1984 4856 
z
" id="DejaVuSans-28" transform="scale(0.015625)"/>
       <path d="M 513 4856 
L 1013 4856 
Q 1481 4119 1714 3412 
Q 1947 2706 1947 2009 
Q 1947 1309 1714 600 
Q 1481 -109 1013 -844 
L 513 -844 
Q 928 -128 1133 580 
Q 1338 1288 1338 2009 
Q 1338 2731 1133 3434 
Q 928 4138 513 4856 
z
" id="DejaVuSans-29" transform="scale(0.015625)"/>
      </defs>
      <use xlink:href="#DejaVuSans-24"/>
      <use x="63.623047" xlink:href="#DejaVuSans-66"/>
      <use x="98.828125" xlink:href="#DejaVuSans-75"/>
      <use x="162.207031" xlink:href="#DejaVuSans-6e"/>
      <use x="225.585938" xlink:href="#DejaVuSans-63"/>
      <use x="280.566406" xlink:href="#DejaVuSans-20"/>
      <use x="312.353516" xlink:href="#DejaVuSans-28"/>
      <use x="351.367188" xlink:href="#DejaVuSans-23"/>
      <use x="435.15625" xlink:href="#DejaVuSans-30"/>
      <use x="498.779297" xlink:href="#DejaVuSans-29"/>
     </g>
    </g>
   </g>
   <g id="text_43">
    <g clip-path="url(#p6d198e8174)">
     <!-- next_fib -->
     <g transform="translate(336.539133 270.102862)scale(0.08 -0.08)">
      <use xlink:href="#DejaVuSans-6e"/>
      <use x="63.378906" xlink:href="#DejaVuSans-65"/>
      <use x="123.152344" xlink:href="#DejaVuSans-78"/>
      <use x="182.332031" xlink:href="#DejaVuSans-74"/>
      <use x="221.541016" xlink:href="#DejaVuSans-5f"/>
      <use x="271.541016" xlink:href="#DejaVuSans-66"/>
      <use x="306.746094" xlink:href="#DejaVuSans-69"/>
      <use x="334.529297" xlink:href="#DejaVuSans-62"/>
     </g>
    </g>
   </g>
   <g id="text_44">
    <g clip-path="url(#p6d198e8174)">
     <!-- - -->
     <g transform="translate(390.075756 270.214112)scale(0.08 -0.08)">
      <use xlink:href="#DejaVuSans-2d"/>
     </g>
    </g>
   </g>
   <g id="text_45">
    <g clip-path="url(#p6d198e8174)">
     <!-- n -->
     <g transform="translate(379.2191 317.817417)scale(0.08 -0.08)">
      <use xlink:href="#DejaVuSans-6e"/>
     </g>
    </g>
   </g>
   <g id="text_46">
    <g clip-path="url(#p6d198e8174)">
     <!-- 2 -->
     <g transform="translate(418.268223 317.817417)scale(0.08 -0.08)">
      <use xlink:href="#DejaVuSans-32"/>
     </g>
    </g>
   </g>
   <g id="text_47">
    <g clip-path="url(#p6d198e8174)">
     <!-- $func (#0) -->
     <g transform="translate(330.947883 222.610806)scale(0.08 -0.08)">
      <use xlink:href="#DejaVuSans-24"/>
      <use x="63.623047" xlink:href="#DejaVuSans-66"/>
      <use x="98.828125" xlink:href="#DejaVuSans-75"/>
      <use x="162.207031" xlink:href="#DejaVuSans-6e"/>
      <use x="225.585938" xlink:href="#DejaVuSans-63"/>
      <use x="280.566406" xlink:href="#DejaVuSans-20"/>
      <use x="312.353516" xlink:href="#DejaVuSans-28"/>
      <use x="351.367188" xlink:href="#DejaVuSans-23"/>
      <use x="435.15625" xlink:href="#DejaVuSans-30"/>
      <use x="498.779297" xlink:href="#DejaVuSans-29"/>
     </g>
    </g>
   </g>
   <g id="text_48">
    <g clip-path="url(#p6d198e8174)">
     <!-- Return -->
     <g transform="translate(290.36273 127.404194)scale(0.08 -0.08)">
      <use xlink:href="#DejaVuSans-52"/>
      <use x="64.982422" xlink:href="#DejaVuSans-65"/>
      <use x="126.505859" xlink:href="#DejaVuSans-74"/>
      <use x="165.714844" xlink:href="#DejaVuSans-75"/>
      <use x="229.09375" xlink:href="#DejaVuSans-72"/>
      <use x="268.457031" xlink:href="#DejaVuSans-6e"/>
     </g>
    </g>
   </g>
   <g id="text_49">
    <g clip-path="url(#p6d198e8174)">
     <!-- FunctionDef -->
     <g transform="translate(230.850702 75.321763)scale(0.08 -0.08)">
      <defs>
       <path d="M 628 4666 
L 3309 4666 
L 3309 4134 
L 1259 4134 
L 1259 2759 
L 3109 2759 
L 3109 2228 
L 1259 2228 
L 1259 0 
L 628 0 
L 628 4666 
z
" id="DejaVuSans-46" transform="scale(0.015625)"/>
       <path d="M 1259 4147 
L 1259 519 
L 2022 519 
Q 2988 519 3436 956 
Q 3884 1394 3884 2338 
Q 3884 3275 3436 3711 
Q 2988 4147 2022 4147 
L 1259 4147 
z
M 628 4666 
L 1925 4666 
Q 3281 4666 3915 4102 
Q 4550 3538 4550 2338 
Q 4550 1131 3912 565 
Q 3275 0 1925 0 
L 628 0 
L 628 4666 
z
" id="DejaVuSans-44" transform="scale(0.015625)"/>
      </defs>
      <use xlink:href="#DejaVuSans-46"/>
      <use x="52.019531" xlink:href="#DejaVuSans-75"/>
      <use x="115.398438" xlink:href="#DejaVuSans-6e"/>
      <use x="178.777344" xlink:href="#DejaVuSans-63"/>
      <use x="233.757812" xlink:href="#DejaVuSans-74"/>
      <use x="272.966797" xlink:href="#DejaVuSans-69"/>
      <use x="300.75" xlink:href="#DejaVuSans-6f"/>
      <use x="361.931641" xlink:href="#DejaVuSans-6e"/>
      <use x="425.310547" xlink:href="#DejaVuSans-44"/>
      <use x="502.3125" xlink:href="#DejaVuSans-65"/>
      <use x="563.835938" xlink:href="#DejaVuSans-66"/>
     </g>
    </g>
    <g clip-path="url(#p6d198e8174)">
     <!-- name=fib -->
     <g transform="translate(235.057577 84.280013)scale(0.08 -0.08)">
      <use xlink:href="#DejaVuSans-6e"/>
      <use x="63.378906" xlink:href="#DejaVuSans-61"/>
      <use x="124.658203" xlink:href="#DejaVuSans-6d"/>
      <use x="222.070312" xlink:href="#DejaVuSans-65"/>
      <use x="283.59375" xlink:href="#DejaVuSans-3d"/>
      <use x="367.382812" xlink:href="#DejaVuSans-66"/>
      <use x="402.587891" xlink:href="#DejaVuSans-69"/>
      <use x="430.371094" xlink:href="#DejaVuSans-62"/>
     </g>
    </g>
   </g>
   <g id="text_50">
    <g clip-path="url(#p6d198e8174)">
     <!-- Module -->
     <g transform="translate(240.266327 32.197583)scale(0.08 -0.08)">
      <defs>
       <path d="M 628 4666 
L 1569 4666 
L 2759 1491 
L 3956 4666 
L 4897 4666 
L 4897 0 
L 4281 0 
L 4281 4097 
L 3078 897 
L 2444 897 
L 1241 4097 
L 1241 0 
L 628 0 
L 628 4666 
z
" id="DejaVuSans-4d" transform="scale(0.015625)"/>
      </defs>
      <use xlink:href="#DejaVuSans-4d"/>
      <use x="86.279297" xlink:href="#DejaVuSans-6f"/>
      <use x="147.460938" xlink:href="#DejaVuSans-64"/>
      <use x="210.9375" xlink:href="#DejaVuSans-75"/>
      <use x="274.316406" xlink:href="#DejaVuSans-6c"/>
      <use x="302.099609" xlink:href="#DejaVuSans-65"/>
     </g>
    </g>
   </g>
  </g>
 </g>
 <defs>
  <clipPath id="p6d198e8174">
   <rect height="345.6" width="460.8" x="0" y="0"/>
  </clipPath>
 </defs>
</svg>
